<svg width="13" height="13" viewBox="0 0 13 13" fill="none" xmlns="http://www.w3.org/2000/svg">
<path fill-rule="evenodd" clip-rule="evenodd" d="M13 6.5C13 10.0899 10.0899 13 6.5 13C2.91015 13 0 10.0899 0 6.5C0 2.91015 2.91015 0 6.5 0C10.0899 0 13 2.91015 13 6.5ZM6.5942 2.26087C6.74411 2.26087 6.88787 2.32764 6.99387 2.44648C7.09987 2.56533 7.15942 2.72652 7.15942 2.8946V8.28986C7.15942 8.45793 7.09987 8.61912 6.99387 8.73797C6.88787 8.85682 6.74411 8.92358 6.5942 8.92358C6.4443 8.92358 6.30053 8.85682 6.19453 8.73797C6.08854 8.61912 6.02899 8.45793 6.02899 8.28986V2.8946C6.02899 2.72652 6.08854 2.56533 6.19453 2.44648C6.30053 2.32764 6.4443 2.26087 6.5942 2.26087ZM6.99387 10.5736C6.88787 10.6796 6.74411 10.7391 6.5942 10.7391C6.4443 10.7391 6.30053 10.6796 6.19453 10.5736C6.08854 10.4676 6.02899 10.3238 6.02899 10.1739C6.02899 10.024 6.08854 9.88024 6.19453 9.77424C6.30053 9.66824 6.4443 9.6087 6.5942 9.6087C6.74411 9.6087 6.88787 9.66824 6.99387 9.77424C7.09987 9.88024 7.15942 10.024 7.15942 10.1739C7.15942 10.3238 7.09987 10.4676 6.99387 10.5736Z" fill="#FC2E20"/>
</svg>
