<svg viewBox="0 0 100 100" fill="none" xmlns="http://www.w3.org/2000/svg">
    <path
        d="M96.0085 30.5361C90.7363 18.2445 81.7771 9.30508 69.3828 4.01897C63.1881 1.37698 56.7529 0.0274658 49.9725 0.0274658C43.1935 0.0274658 36.7513 1.36423 30.5634 4.01897C18.2719 9.29103 9.21814 18.2247 3.9366 30.5361C1.29003 36.7041 0 43.166 0 49.9451C0 56.7255 1.29003 63.241 3.9366 69.4103C9.21814 81.7217 18.2717 90.709 30.5634 95.9824C36.7513 98.6371 43.1933 99.9726 49.9725 99.9726C56.7529 99.9726 63.1881 98.623 69.3828 95.9824C81.7773 90.6961 90.7364 81.7008 96.0085 69.4103C98.6632 63.2213 100 56.7255 100 49.9451C100 43.166 98.6632 36.725 96.0085 30.5361ZM33.3511 9.32256C29.0319 14.7896 25.8616 21.7332 23.8379 30.1534H10.7708C15.582 20.8036 23.6747 13.3129 33.3511 9.32256ZM6.06879 49.9451C6.06879 45.1886 6.83399 40.5964 8.31062 36.1675H22.6353C21.9248 40.8144 21.5961 45.4079 21.5961 49.9451C21.5961 54.4288 21.925 58.9675 22.6353 63.6144H8.20098C6.77925 59.1855 6.06879 54.5933 6.06879 49.9451ZM10.7708 69.6284H23.8381C25.8618 78.2119 29.0322 85.2652 33.3513 90.6786C23.5101 86.5775 15.4176 79.0869 10.7708 69.6284ZM46.9108 93.4116C43.3567 92.3734 40.0219 89.749 37.015 85.4847C34.008 81.2191 31.7114 75.9165 30.1261 69.6284H46.9108V93.4116ZM46.9108 63.6144H28.759C28.0476 58.7481 27.6649 54.2095 27.6649 49.9451C27.6649 45.353 28.0474 40.7597 28.8686 36.1675H46.9106V63.6144H46.9108ZM46.9108 30.1536H30.1261C31.8209 23.9203 34.1304 18.6807 37.1247 14.4618C40.1444 10.2056 43.3569 7.57289 46.9109 6.58841V30.1536H46.9108ZM89.2294 30.1536H76.1619C74.1394 21.7332 70.968 14.7896 66.6487 9.32273C76.3265 13.3129 84.418 20.8036 89.2294 30.1536ZM53.0892 6.58841C56.6433 7.57289 59.8556 10.2056 62.8755 14.4618C65.8708 18.6807 68.1791 23.9203 69.8739 30.1536H53.0892V6.58841ZM53.0892 36.1675H71.1312C71.9523 40.7597 72.335 45.353 72.335 49.9451C72.335 54.2097 71.9523 58.7481 71.2409 63.6144H53.0892V36.1675ZM53.0892 93.4116V69.6284H69.8739C68.234 75.9165 65.907 81.1981 62.9302 85.4847C59.9466 89.7817 56.698 92.4283 53.0892 93.4116ZM66.6489 90.6786C70.9681 85.2652 74.1395 78.2119 76.1621 69.6284H89.2296C84.5825 79.0869 76.4897 86.5775 66.6489 90.6786ZM91.799 63.6144H77.3647C78.0761 58.9673 78.4039 54.4288 78.4039 49.9451C78.4039 45.4079 78.0761 40.8146 77.3647 36.1675H91.6894C93.166 40.5963 93.9312 45.1884 93.9312 49.9451C93.9311 54.5933 93.2209 59.1855 91.799 63.6144Z"
        fill="#538689"
    />
</svg>