<svg width="13" height="13" viewBox="0 0 13 13" fill="none" xmlns="http://www.w3.org/2000/svg">
<path d="M6.4935 0C2.9055 0 0 2.912 0 6.5C0 10.088 2.9055 13 6.4935 13C10.088 13 13 10.088 13 6.5C13 2.912 10.088 0 6.4935 0ZM6.5 11.7C3.627 11.7 1.3 9.373 1.3 6.5C1.3 3.627 3.627 1.3 6.5 1.3C9.373 1.3 11.7 3.627 11.7 6.5C11.7 9.373 9.373 11.7 6.5 11.7ZM6.357 3.25H6.318C6.058 3.25 5.85 3.458 5.85 3.718V6.786C5.85 7.0135 5.967 7.228 6.1685 7.345L8.866 8.9635C9.087 9.0935 9.373 9.0285 9.503 8.8075C9.53564 8.75487 9.55735 8.69621 9.56684 8.63501C9.57634 8.57381 9.57341 8.51132 9.55825 8.45128C9.54309 8.39123 9.51599 8.33486 9.47858 8.2855C9.44117 8.23615 9.39421 8.19483 9.3405 8.164L6.825 6.669V3.718C6.825 3.458 6.617 3.25 6.357 3.25Z" fill="#797979"/>
</svg>
