<svg viewBox="0 0 27 27" fill="none" xmlns="http://www.w3.org/2000/svg">
    <path d="M16.5 1C14.0147 1 12 3.01472 12 5.5V13.5C12 15.9853 14.0147 18 16.5 18C18.9853 18 21 15.9853 21 13.5V5.5C21 3.01472 18.9853 1 16.5 1ZM10.5 13.5C10.5 17.0899 13.4101 20 17 20C20.5899 20 23.5 17.0899 23.5 13.5H21.5C21.5 16.2614 19.2614 18.5 16.5 18.5C13.7386 18.5 11.5 16.2614 11.5 13.5H10.5ZM16.5 22C12.9101 22 10 19.0899 10 15.5H8C8 20.1944 11.8056 24 16.5 24C21.1944 24 25 20.1944 25 15.5H23C23 19.0899 20.0899 22 16.5 22Z" stroke="#627599" stroke-width="1.5" stroke-linecap="round" stroke-linejoin="round"/>
</svg>
