<svg width="10" height="10" viewBox="0 0 10 10" fill="none" xmlns="http://www.w3.org/2000/svg">
<path d="M9.84148 1.39643L9.15376 1.92143C8.21607 0.75119 6.75771 0 5.12011 0C2.29241 0 0.00366246 2.23214 4.36963e-06 4.99405C-0.00365372 7.75833 2.28997 10 5.12011 10C7.33081 10 9.21473 8.63095 9.93172 6.7131C9.95001 6.6631 9.92318 6.60714 9.87197 6.59048L9.18059 6.35833C9.15648 6.35027 9.1301 6.35173 9.10709 6.36241C9.08407 6.37309 9.06625 6.39213 9.05743 6.41548C9.03548 6.475 9.0111 6.53452 8.98549 6.59286C8.77454 7.08095 8.47214 7.51905 8.08682 7.89524C7.70461 8.2691 7.25208 8.56741 6.75406 8.77381C6.23827 8.98691 5.68833 9.09524 5.12255 9.09524C4.55554 9.09524 4.00683 8.98691 3.49104 8.77381C2.99254 8.56828 2.53984 8.26986 2.15828 7.89524C1.77503 7.52213 1.4698 7.07978 1.25961 6.59286C1.04134 6.0881 0.930378 5.55238 0.930378 4.99881C0.930378 4.44524 1.04134 3.90952 1.25961 3.40476C1.47056 2.91667 1.77296 2.47857 2.15828 2.10238C2.5436 1.72619 2.99232 1.43095 3.49104 1.22381C4.00683 1.01071 4.55676 0.902381 5.12255 0.902381C5.68955 0.902381 6.23827 1.01071 6.75406 1.22381C7.25256 1.42934 7.70526 1.72776 8.08682 2.10238C8.20754 2.22024 8.32094 2.34524 8.4258 2.47619L7.69175 3.03571C7.67722 3.04668 7.66616 3.06143 7.65984 3.07826C7.65352 3.0951 7.6522 3.11333 7.65602 3.13086C7.65984 3.1484 7.66865 3.16452 7.68145 3.17739C7.69424 3.19025 7.71049 3.19933 7.72833 3.20357L9.86953 3.71548C9.9305 3.72976 9.99024 3.68452 9.99024 3.62381L10 1.47024C9.99878 1.39167 9.90489 1.34762 9.84148 1.39643Z" fill="#4A5875"/>
</svg>
