<svg viewBox="0 0 103 136" fill="none" xmlns="http://www.w3.org/2000/svg">
<path d="M97.0945 136C96.2085 136 95.338 135.767 94.5707 135.323L51.0846 110.387L7.59841 135.323C6.82708 135.766 5.95312 135.997 5.06405 135.995C4.17498 135.994 3.30199 135.758 2.53252 135.313C1.76304 134.867 1.12408 134.228 0.679616 133.458C0.235155 132.688 0.000793629 131.814 0 130.925V5.07463C0 3.72875 0.534645 2.438 1.48632 1.48632C2.438 0.534647 3.72875 0 5.07463 0H97.0945C98.4404 0 99.7311 0.534647 100.683 1.48632C101.635 2.438 102.169 3.72875 102.169 5.07463V130.925C102.169 132.271 101.635 133.562 100.683 134.514C99.7311 135.465 98.4404 136 97.0945 136ZM51.0846 99.4627C51.9706 99.4628 52.8411 99.6962 53.6084 100.139L92.0199 122.163V10.1493H10.1493V122.163L48.5608 100.139C49.3281 99.6962 50.1985 99.4628 51.0846 99.4627Z" fill="white"/>
</svg>
