<svg viewBox="0 0 32 32" xmlns="http://www.w3.org/2000/svg"><g data-name="volume, sound, audio, speaker, loud, music, loudspeaker"><path d="M18.47 6.12a1 1 0 0 0-1 0L8.7 12H3a1 1 0 0 0-1 1v6a1 1 0 0 0 1 1h5.7l8.75 5.83A1 1 0 0 0 19 25V7a1 1 0 0 0-.53-.88ZM4 14h4v4H4Zm13 9.13-7-4.67v-4.92l7-4.67ZM22.6 11.2a1 1 0 0 0-1.2 1.6 4 4 0 0 1 0 6.4 1 1 0 0 0-.2 1.4 1 1 0 0 0 .8.4 1 1 0 0 0 .6-.2 6 6 0 0 0 0-9.6ZM27.75 9.34a1 1 0 1 0-1.5 1.32c2.35 2.65 2.35 8 0 10.68a1 1 0 0 0 .09 1.41 1 1 0 0 0 1.41-.09c2.99-3.36 2.99-9.96 0-13.32Z" fill="#8a8a8a" class="fill-000000"></path></g></svg>