<?xml version="1.0" ?><svg viewBox="0 0 32 32" xmlns="http://www.w3.org/2000/svg"><title/><g data-name="volume, sound, audio, speaker, loud, music, loudspeaker" id="volume_sound_audio_speaker_loud_music_loudspeaker"><path d="M18.47,6.12a1,1,0,0,0-1,0L8.7,12H3a1,1,0,0,0-1,1v6a1,1,0,0,0,1,1H8.7l8.75,5.83A1,1,0,0,0,19,25V7A1,1,0,0,0,18.47,6.12ZM4,14H8v4H4Zm13,9.13-7-4.67V13.54l7-4.67Z"/><path d="M22.6,11.2a1,1,0,0,0-1.2,1.6,4,4,0,0,1,0,6.4,1,1,0,0,0-.2,1.4,1,1,0,0,0,.8.4,1,1,0,0,0,.6-.2,6,6,0,0,0,0-9.6Z"/><path d="M27.75,9.34a1,1,0,1,0-1.5,1.32c2.35,2.65,2.35,8,0,10.68a1,1,0,0,0,.09,1.41,1,1,0,0,0,1.41-.09C30.74,19.3,30.74,12.7,27.75,9.34Z"/></g></svg>